# xmcd CD database file
#
# Track frame offsets:
#	150
#	24647
#	53438
#	79846
#	100721
#	121691
#	144879
#	171769
#	191876
#
# Disc length: 2869 seconds
#
# Revision: 0
# Processed by: cddbd v1.5.1PL0 Copyright (c) Steve Scherf et al.
# Submitted via: CDex 1.51
#
DISCID=680b3309
DTITLE=LAREINE - BLUE ROMANCE〜優しい花達の狂奏〜
DYEAR=1900
DGENRE=Visual_Rock
TTITLE0=Destinee「悲劇の朝」
TTITLE1=BLUE ROMANCE「想い」
TTITLE2=季節風「思い出の風」
TTITLE3=SOLITUDE「鏡の間」
TTITLE4=悲愁の花園「訣別の薔薇」
TTITLE5=Feerie「不安」
TTITLE6=再会の花「希望」
TTITLE7=ROMANCIA「運命の迷い」
TTITLE8=Feerie「希望」
EXTD=
EXTT0=
EXTT1=
EXTT2=
EXTT3=
EXTT4=
EXTT5=
EXTT6=
EXTT7=
EXTT8=
PLAYORDER=
